# xmcd CD database file generated by OrangeCD 6.5
#
# Track frame offsets:
#	150
#	17065
#	46602
#	70697
#	83995
#	111640
#	135660
#	159267
#	178522
#	195617
#	222165
#
# Disc length: 3194 seconds
#
# Revision: 0
# Processed by: cddbd v1.5.2PL0 Copyright (c) Steve Scherf et al.
# Submitted via: OrangeCD 6.5
#
DISCID=8f0c780b
DTITLE=Oulunkylä Big Band featuring Pepe Ahlqvist - Hip Shakin'
DYEAR=1992
DGENRE=Big Band
TTITLE0=Let's Have A Natural Ball
TTITLE1=So Excited
TTITLE2=Rebirth Of Love
TTITLE3=Ain't That Lovin' You
TTITLE4=Hip Shakin'
TTITLE5=Michelangelo Blues
TTITLE6=Don't Come Closer
TTITLE7=Route 66
TTITLE8=Let's Fake Love
TTITLE9=Bluescope
TTITLE10='tain't Nobody's Bizness
EXTD=
EXTT0=
EXTT1=
EXTT2=
EXTT3=
EXTT4=
EXTT5=
EXTT6=
EXTT7=
EXTT8=
EXTT9=
EXTT10=
PLAYORDER=
